<?xml version="1.0" standalone="no"?>
<!DOCTYPE svg PUBLIC "-//W3C//DTD SVG 20010904//EN"
 "http://www.w3.org/TR/2001/REC-SVG-20010904/DTD/svg10.dtd">
<svg version="1.0" xmlns="http://www.w3.org/2000/svg"
 width="512.000000pt" height="512.000000pt" viewBox="0 0 512.000000 512.000000"
 preserveAspectRatio="xMidYMid meet">
<metadata>
Created by potrace 1.14, written by Peter Selinger 2001-2017
</metadata>
<g transform="translate(0.000000,512.000000) scale(0.100000,-0.100000)"
fill="#000000" stroke="none">
<path d="M1443 4656 c-63 -20 -127 -61 -165 -105 -26 -31 -170 -282 -187 -326
-3 -9 -71 -136 -186 -350 -18 -33 -56 -105 -85 -160 -29 -55 -63 -118 -75
-140 -12 -22 -53 -98 -90 -170 -38 -71 -76 -142 -86 -156 -10 -14 -113 -140
-230 -280 -116 -140 -224 -274 -240 -299 -26 -39 -66 -131 -74 -170 -2 -8 -8
-35 -14 -60 -7 -30 -10 -335 -8 -920 l2 -875 30 -54 c31 -57 90 -107 150 -128
23 -8 120 -12 287 -12 248 -1 254 -1 305 23 61 29 104 69 135 129 22 40 23 55
26 292 1 138 3 268 5 290 l2 40 1618 0 1617 1 1 -261 c0 -143 2 -275 5 -293
10 -77 68 -153 148 -192 l62 -31 265 3 c255 3 266 4 309 27 50 26 101 78 128
131 16 32 17 100 19 910 3 969 4 942 -62 1087 -27 58 -83 132 -272 359 -131
157 -240 291 -242 297 -2 7 -30 59 -61 117 -98 180 -144 266 -270 505 -29 55
-65 123 -80 150 -33 61 -79 147 -221 414 -50 93 -100 145 -177 183 l-67 33
-1090 2 c-881 1 -1098 -1 -1132 -11z m2091 -221 c109 -33 137 -68 268 -335 60
-124 127 -261 148 -305 21 -44 59 -123 84 -175 26 -52 48 -104 50 -115 5 -31
-12 -68 -41 -89 -25 -19 -51 -19 -665 -20 -351 -1 -638 2 -638 5 0 3 44 48 98
99 189 180 467 446 514 493 53 53 61 86 26 111 -35 25 -3 53 -516 -439 -57
-55 -141 -135 -186 -179 -51 -49 -92 -81 -111 -85 -40 -8 -1433 -6 -1466 2
-33 8 -67 63 -62 99 3 24 45 112 308 653 100 204 132 243 232 280 59 21 1887
21 1957 0z m-268 -2019 c69 -16 97 -78 78 -171 -27 -128 -95 -330 -120 -355
l-24 -25 -640 0 -640 0 -24 25 c-18 18 -39 72 -75 190 -65 219 -68 251 -23
301 19 21 41 34 67 38 54 9 1363 6 1401 -3z m-2666 -61 c37 -5 302 -57 360
-70 8 -2 60 -13 115 -24 161 -33 205 -50 249 -98 26 -28 46 -93 41 -133 -3
-30 -28 -88 -47 -111 -8 -10 -32 -27 -53 -40 -39 -22 -45 -23 -375 -24 -362
-1 -379 1 -435 53 -48 44 -68 104 -61 186 14 192 60 283 136 271 14 -3 45 -7
70 -10z m4055 -9 c40 -40 73 -173 71 -284 -3 -95 -34 -149 -111 -190 -26 -13
-79 -16 -360 -17 -254 -1 -339 2 -370 12 -124 42 -172 205 -86 296 14 16 43
38 64 48 33 17 286 75 547 124 41 8 95 18 120 23 60 12 106 7 125 -12z"/>
</g>
</svg>
